<?xml version="1.0" ?><svg data-name="Layer 1" id="Layer_1" viewBox="0 0 100 100" xmlns="http://www.w3.org/2000/svg"><title/><path d="M94.92365,5.619a1.00164,1.00164,0,0,0-.20429-.30768c-.00531-.00555-.00684-.013-.01227-.01843-.00793-.00794-.0188-.01026-.02691-.01789A.96834.96834,0,0,0,93.99969,5H80a1,1,0,0,0,0,2V6.99994H91.58575L7,91.58575V80a1,1,0,1,0-1.99994,0L5,93.99994H5V94l.00043.00208A1.00212,1.00212,0,0,0,6,94.99994H20a.99994.99994,0,1,0,0-1.99988V93H8.41418L92.99994,8.41425,93,20a1,1,0,0,0,2,0L94.99994,6.00024A.99914.99914,0,0,0,94.92365,5.619Z"/><path d="M5,58a1,1,0,0,0,2,0V11a4,4,0,0,1,4-4.00006H58a.99994.99994,0,1,0,0-1.99988V5H11a6.00026,6.00026,0,0,0-6,6Z"/><path d="M42,94.99994H89A6.0002,6.0002,0,0,0,94.99994,89V42a.99994.99994,0,1,0-1.99988,0L93,89a4,4,0,0,1-4,4H42a1,1,0,0,0,0,2Z"/></svg>