<?xml version="1.0" ?><!DOCTYPE svg  PUBLIC '-//W3C//DTD SVG 1.1//EN'  'http://www.w3.org/Graphics/SVG/1.1/DTD/svg11.dtd'><svg enable-background="new -142.166 -149.398 40.818 42.393" height="42.393px" id="Layer_1" version="1.1" viewBox="-142.166 -149.398 40.818 42.393" width="40.818px" xml:space="preserve" xmlns="http://www.w3.org/2000/svg" xmlns:xlink="http://www.w3.org/1999/xlink"><g><g><path d="M-124.029-110.386c-1.111,0-2.246-0.013-3.406-0.036c-4.597-0.097-7.875-2.705-9-7.158    c-0.351-1.389-0.459-2.83-0.564-4.224c-0.049-0.623-0.096-1.245-0.164-1.862c-0.045-0.412,0.25-0.782,0.662-0.828    c0.418-0.044,0.783,0.25,0.828,0.662c0.072,0.635,0.121,1.274,0.17,1.914c0.105,1.394,0.205,2.707,0.523,3.971    c0.961,3.805,3.649,5.943,7.576,6.025c6.301,0.133,11.821-0.096,16.872-0.689c3.353-0.396,5.97-4.263,5.962-8.805    c-0.017-8.06-0.343-16.248-0.646-23.29c-0.053-1.223-0.758-2.244-1.934-2.803c-1.351-0.64-2.935-0.482-4.134,0.413    c-0.567,0.425-1.016,1.087-1.489,1.788c-0.236,0.351-0.476,0.701-0.729,1.026c-0.254,0.326-0.723,0.388-1.053,0.132    c-0.326-0.254-0.387-0.727-0.131-1.053c0.233-0.301,0.451-0.624,0.67-0.945c0.522-0.774,1.063-1.574,1.836-2.15    c1.647-1.229,3.82-1.444,5.674-0.565c1.67,0.794,2.711,2.323,2.787,4.094c0.307,7.057,0.633,15.264,0.648,23.353    c0.01,5.29-3.191,9.813-7.285,10.296C-114.543-110.629-119.043-110.386-124.029-110.386z"/></g><g><path d="M-102.098-122.999c-0.004,0-0.01,0-0.014,0l-39.318-0.666c-0.414-0.007-0.744-0.349-0.736-0.763    c0.006-0.414,0.349-0.717,0.763-0.737l39.317,0.666c0.414,0.007,0.744,0.35,0.738,0.764    C-101.355-123.326-101.689-122.999-102.098-122.999z"/></g><g><path d="M-111.43-135.66c-0.111,0-0.225-0.024-0.332-0.078c-0.371-0.184-0.521-0.634-0.338-1.005    c1.901-3.846,0.473-5.489-0.771-6.392c-1.545-1.122-4.067-0.454-6.008,1.584c-0.225,0.235-0.424,0.52-0.635,0.82    c-0.103,0.146-0.205,0.293-0.312,0.436c-0.247,0.332-0.717,0.402-1.051,0.153c-0.332-0.248-0.399-0.717-0.151-1.049    c0.098-0.132,0.19-0.267,0.284-0.4c0.234-0.334,0.478-0.679,0.779-0.995c2.463-2.589,5.818-3.328,7.973-1.763    c2.601,1.888,3.015,4.67,1.232,8.271C-110.887-135.813-111.152-135.66-111.43-135.66z"/></g><g><path d="M-109.764-134.328c-0.125,0-0.254-0.031-0.371-0.099l-0.738-0.427c-0.521-0.305-1.045-0.608-1.578-0.893    c-2.68-1.433-5.362-2.856-8.047-4.28l-2.61-1.387c-0.365-0.193-0.504-0.647-0.312-1.015c0.195-0.364,0.648-0.503,1.014-0.312    l2.611,1.387c2.687,1.425,5.369,2.851,8.051,4.283c0.55,0.292,1.086,0.604,1.625,0.918l0.729,0.421    c0.358,0.206,0.483,0.664,0.279,1.022C-109.25-134.464-109.502-134.328-109.764-134.328z"/></g><g><path d="M-106.43-107.005c-0.275,0-0.541-0.152-0.672-0.415l-2-3.999c-0.187-0.37-0.035-0.82,0.336-1.006s0.822-0.034,1.006,0.336    l2,3.999c0.186,0.37,0.035,0.821-0.336,1.006C-106.203-107.031-106.318-107.005-106.43-107.005z"/></g><g><path d="M-134.754-107.339c-0.152,0-0.307-0.047-0.438-0.144c-0.336-0.243-0.41-0.713-0.166-1.049l2.666-3.663    c0.241-0.335,0.711-0.41,1.047-0.166c0.336,0.242,0.41,0.712,0.166,1.047l-2.666,3.666    C-134.293-107.446-134.521-107.339-134.754-107.339z"/></g></g></svg>